<svg width="704" height="427" viewBox="0 0 704 427" fill="none" xmlns="http://www.w3.org/2000/svg">
<path d="M28.8208 419.02C37.7261 424.036 47.7648 426.463 58.9369 426.463C69.9471 426.463 79.9858 424.036 89.0531 419.02C97.9584 414.166 104.921 407.208 110.102 398.471C115.283 389.733 117.874 380.024 117.874 369.022C117.874 358.18 115.283 348.31 110.102 339.573C104.921 330.835 97.9584 324.039 89.0531 319.023C79.9858 314.169 69.9471 311.58 58.9369 311.58C47.7648 311.58 37.7261 314.169 28.8208 319.185C19.7535 324.201 12.7913 330.997 7.60999 339.734C2.42871 348.472 0 358.342 0 369.022C0 379.863 2.42871 389.571 7.60999 398.309C12.7913 407.046 19.7535 414.004 28.8208 419.02ZM84.6814 412.386C76.9095 416.755 68.328 418.858 58.9369 418.858C49.3839 418.858 40.8025 416.755 33.0306 412.386C25.2586 408.179 19.2679 402.192 14.8962 394.587C10.3626 386.982 8.2576 378.406 8.2576 369.022C8.2576 359.637 10.3626 351.223 14.8962 343.618C19.2679 336.013 25.2586 330.026 33.0306 325.657C40.8025 321.45 49.3839 319.185 58.9369 319.185C68.328 319.185 76.9095 321.45 84.6814 325.657C92.2914 330.026 98.2822 336.013 102.816 343.618C107.188 351.223 109.454 359.637 109.454 369.022C109.454 378.406 107.188 386.982 102.816 394.587C98.2822 402.192 92.2914 408.179 84.6814 412.386Z" fill="#FFEDDF"/>
<path d="M238.807 312.389H230.549V410.768L153.478 312.389H146.515V425.654H154.773V327.275L232.006 425.654H238.807V312.389Z" fill="#FFEDDF"/>
<path d="M320.131 312.389V425.654H328.389V312.389H320.131Z" fill="#FFEDDF"/>
<path d="M465.356 339.896C460.175 331.32 453.05 324.686 443.983 319.67C434.916 314.816 424.392 312.389 412.734 312.389H367.883V319.832H412.086C422.449 319.832 431.678 321.936 439.774 326.143C447.707 330.35 453.86 336.175 458.232 343.456C462.442 350.899 464.708 359.475 464.708 369.022C464.708 378.73 462.442 387.144 458.232 394.587C453.86 402.03 447.707 407.855 439.774 412.062C431.678 416.269 422.449 418.211 412.086 418.211H376.141V369.022H367.883V425.654H412.734C424.392 425.654 434.916 423.227 443.983 418.373C453.05 413.519 460.175 406.885 465.356 398.309C470.376 389.733 472.966 380.025 472.966 369.022C472.966 358.18 470.376 348.472 465.356 339.896Z" fill="#FFEDDF"/>
<path d="M575 364.491H501.653V371.772H575V364.491ZM575 312.389H501.653V319.832H575V312.389ZM501.653 418.211V425.654H575V418.211H501.653Z" fill="#FFEDDF"/>
<path d="M651.573 312.389H643.316L591.179 425.654H600.084L647.363 321.45L694.805 425.654H703.71L651.573 312.389Z" fill="#FFEDDF"/>
<path d="M185.33 117.23H0V133.613H185.33V117.23ZM244.959 0H0V16.7471L256.459 16.7471L244.959 0ZM0 238.1V254.847H185.33V238.1H0Z" fill="#FFEDDF"/>
<path d="M358.45 167.107L473.821 0H452.138L348.631 149.996L245.125 0H222.214L337.585 167.107V254.847H358.45V167.107Z" fill="#FFEDDF"/>
<path d="M703.917 117.23H518.587V133.613H703.917V117.23ZM703.917 0H452.459L440.959 16.8182L703.917 16.7471V0ZM518.587 238.1V254.847H703.917V238.1H518.587Z" fill="#FFEDDF"/>
</svg>
