<svg width="438" height="412" viewBox="0 0 438 412" fill="none" xmlns="http://www.w3.org/2000/svg">
<path d="M131.6 245.6V93.6C165.093 103.039 185.019 108.371 183.6 116.6V175.6C211.232 170.445 230.026 173.237 266.1 182.6C257.402 179.319 251.9 177.073 240.6 172.1V113.6C239.885 107.069 265.128 101.351 292.1 92.6L291.1 267.1C285 279.102 276.301 284.993 255.1 294.6L240.1 290.6V214.6C199.913 212.906 178.95 212.835 160.1 223.1C169.438 219.784 174.644 218.212 183.6 218.6V268.1L131.6 245.6Z" fill="url(#paint0_linear_26_19)"/>
<g filter="url(#filter0_gf_26_19)">
<path d="M298.82 75.0193C253.821 15.019 182.821 9.01903 130.321 75.0192H115.821C115.821 74.7103 115.821 74.0189 115.821 72.5191C121.137 60.2437 210.32 -51.481 309.32 65.5193V75.0193H298.82Z" fill="url(#paint1_linear_26_19)" stroke="black"/>
<path d="M86.6038 213.019C86.4576 175.033 90.6036 157.519 103.104 119.019C115.104 117.019 115.104 117.019 115.104 117.019C102.071 152.341 99.0584 175.865 99.1038 222.519L86.6038 213.019Z" fill="url(#paint2_linear_26_19)" stroke="black"/>
<path d="M338.1 213.019C338.246 175.033 334.1 157.519 321.6 119.019C309.6 117.019 309.6 117.019 309.6 117.019C322.633 152.341 325.646 175.865 325.6 222.519L338.1 213.019Z" fill="url(#paint3_linear_26_19)" stroke="black"/>
<circle cx="347.6" cy="73.0189" r="23.5" fill="url(#paint4_linear_26_19)" stroke="black"/>
<path d="M121.682 90.519L115.182 104.519C64.6825 104.519 30.082 120.951 26.1823 154.519C19.0316 229.7 394.182 394.019 400.182 277.019C400.372 267.742 394.609 254.642 385.682 233.019L394.182 226.519C514.182 438.519 15.6823 277.019 12.6823 154.519C10.7089 127.879 44.1823 88.5189 121.682 90.519Z" fill="url(#paint5_linear_26_19)" stroke="black"/>
<path d="M379.6 100.519L369.1 109.519C392.68 121.597 409.6 136.519 409.6 154.519C409.979 193.705 328.6 241.019 308.6 250.019L310.1 265.519C366.6 235.019 424.6 197.519 424.6 153.519C421.448 129.835 412.977 117.945 379.6 100.519Z" fill="url(#paint6_linear_26_19)" stroke="black"/>
<path d="M326.542 268.082C322.22 283.295 317.044 292.064 306.6 307.812L319.122 310.019C331.961 289.288 333.523 279.383 338.6 261.019L326.542 268.082Z" fill="url(#paint7_linear_26_19)" stroke="black"/>
<path d="M145.1 342.519L136.6 351.019C157.1 376.019 184.6 399.019 223.1 399.019C264.6 399.019 292.1 363.519 309.6 342.019L295.1 339.019C270.1 366.519 251.1 385.019 223.1 385.019C191.1 385.019 171.974 369.211 145.1 342.519Z" fill="url(#paint8_linear_26_19)" stroke="black"/>
<path d="M152.6 330.519V318.872C171.323 316.336 179.451 313.533 193.897 308.551L193.99 308.519C195.696 310.244 204.657 311.539 210.6 314.99C190.011 321.935 179.332 327.837 152.6 330.519Z" fill="url(#paint9_linear_26_19)" stroke="black"/>
<circle cx="120.6" cy="318.019" r="22.5" fill="url(#paint10_linear_26_19)" stroke="black"/>
<path d="M68.8001 240.364L60.7001 234.019C49.9566 250.63 43.6001 266.649 43.6001 283.418C45.5712 308.725 66.5501 321.94 88.6001 326.019V314.689C61.3544 306.216 55.3001 292.029 55.3001 280.246C55.3001 268.009 61.711 254.503 68.8001 240.364Z" fill="url(#paint11_linear_26_19)" stroke="black"/>
</g>
<path d="M131.6 245.6V93.6C165.093 103.039 185.019 108.371 183.6 116.6V175.6C211.232 170.445 230.026 173.237 266.1 182.6C257.402 179.319 251.9 177.073 240.6 172.1V113.6C239.885 107.069 265.128 101.351 292.1 92.6L291.1 267.1C285 279.102 276.301 284.993 255.1 294.6L240.1 290.6V214.6C199.913 212.906 178.95 212.835 160.1 223.1C169.438 219.784 174.644 218.212 183.6 218.6V268.1L131.6 245.6Z" fill="url(#paint12_linear_26_19)"/>
<path d="M298.82 75.0193C253.821 15.019 182.821 9.01903 130.321 75.0192H115.821C115.821 74.7103 115.821 74.0189 115.821 72.5191C121.137 60.2437 210.32 -51.481 309.32 65.5193V75.0193H298.82Z" fill="url(#paint13_linear_26_19)"/>
<path d="M86.6038 213.019C86.4576 175.033 90.6036 157.519 103.104 119.019C115.104 117.019 115.104 117.019 115.104 117.019C102.071 152.341 99.0584 175.865 99.1038 222.519L86.6038 213.019Z" fill="url(#paint14_linear_26_19)"/>
<path d="M338.1 213.019C338.246 175.033 334.1 157.519 321.6 119.019C309.6 117.019 309.6 117.019 309.6 117.019C322.633 152.341 325.646 175.865 325.6 222.519L338.1 213.019Z" fill="url(#paint15_linear_26_19)"/>
<circle cx="347.6" cy="73.0189" r="24" fill="url(#paint16_linear_26_19)"/>
<path d="M121.682 90.519L115.182 104.519C64.6825 104.519 30.082 120.951 26.1823 154.519C19.0316 229.7 394.182 394.019 400.182 277.019C400.372 267.742 394.609 254.642 385.682 233.019L394.182 226.519C514.182 438.519 15.6823 277.019 12.6823 154.519C10.7089 127.879 44.1823 88.5189 121.682 90.519Z" fill="url(#paint17_linear_26_19)"/>
<path d="M379.6 100.519L369.1 109.519C392.68 121.597 409.6 136.519 409.6 154.519C409.979 193.705 328.6 241.019 308.6 250.019L310.1 265.519C366.6 235.019 424.6 197.519 424.6 153.519C421.448 129.835 412.977 117.945 379.6 100.519Z" fill="url(#paint18_linear_26_19)"/>
<path d="M326.542 268.082C322.22 283.295 317.044 292.064 306.6 307.812L319.122 310.019C331.961 289.288 333.523 279.383 338.6 261.019L326.542 268.082Z" fill="url(#paint19_linear_26_19)"/>
<path d="M145.1 342.519L136.6 351.019C157.1 376.019 184.6 399.019 223.1 399.019C264.6 399.019 292.1 363.519 309.6 342.019L295.1 339.019C270.1 366.519 251.1 385.019 223.1 385.019C191.1 385.019 171.974 369.211 145.1 342.519Z" fill="url(#paint20_linear_26_19)"/>
<path d="M152.6 330.519V318.872C171.323 316.336 179.451 313.533 193.897 308.551L193.99 308.519C195.696 310.244 204.657 311.539 210.6 314.99C190.011 321.935 179.332 327.837 152.6 330.519Z" fill="url(#paint21_linear_26_19)"/>
<circle cx="120.6" cy="318.019" r="23" fill="url(#paint22_linear_26_19)"/>
<path d="M68.8001 240.364L60.7001 234.019C49.9566 250.63 43.6001 266.649 43.6001 283.418C45.5712 308.725 66.5501 321.94 88.6001 326.019V314.689C61.3544 306.216 55.3001 292.029 55.3001 280.246C55.3001 268.009 61.711 254.503 68.8001 240.364Z" fill="url(#paint23_linear_26_19)"/>
<defs>
<filter id="filter0_gf_26_19" x="9.72748e-05" y="-2.47955e-05" width="437.2" height="411.619" filterUnits="userSpaceOnUse" color-interpolation-filters="sRGB">
<feFlood flood-opacity="0" result="BackgroundImageFix"/>
<feBlend mode="normal" in="SourceGraphic" in2="BackgroundImageFix" result="shape"/>
<feTurbulence type="fractalNoise" baseFrequency="0.71428573131561279 0.71428573131561279" numOctaves="3" seed="851" />
<feDisplacementMap in="shape" scale="8" xChannelSelector="R" yChannelSelector="G" result="displacedImage" width="100%" height="100%" />
<feMerge result="effect1_texture_26_19">
<feMergeNode in="displacedImage"/>
</feMerge>
<feGaussianBlur stdDeviation="6.05" result="effect2_foregroundBlur_26_19"/>
</filter>
<linearGradient id="paint0_linear_26_19" x1="211.85" y1="92.6" x2="211.85" y2="294.6" gradientUnits="userSpaceOnUse">
<stop stop-color="#7FDDFF"/>
<stop offset="1" stop-color="#FFC609"/>
</linearGradient>
<linearGradient id="paint1_linear_26_19" x1="212.57" y1="12.6" x2="212.57" y2="75.0193" gradientUnits="userSpaceOnUse">
<stop stop-color="#59B2D2"/>
<stop offset="1" stop-color="#FFC609"/>
</linearGradient>
<linearGradient id="paint2_linear_26_19" x1="100.852" y1="117.019" x2="100.852" y2="222.519" gradientUnits="userSpaceOnUse">
<stop stop-color="#59B2D2"/>
<stop offset="1" stop-color="#FFC609"/>
</linearGradient>
<linearGradient id="paint3_linear_26_19" x1="323.852" y1="117.019" x2="323.852" y2="222.519" gradientUnits="userSpaceOnUse">
<stop stop-color="#59B2D2"/>
<stop offset="1" stop-color="#FFC609"/>
</linearGradient>
<linearGradient id="paint4_linear_26_19" x1="347.6" y1="49.0189" x2="347.6" y2="97.0189" gradientUnits="userSpaceOnUse">
<stop stop-color="#59B2D2"/>
<stop offset="1" stop-color="#FFC609"/>
</linearGradient>
<linearGradient id="paint5_linear_26_19" x1="212.712" y1="90.4457" x2="212.712" y2="329.547" gradientUnits="userSpaceOnUse">
<stop stop-color="#59B2D2"/>
<stop offset="1" stop-color="#FFC609"/>
</linearGradient>
<linearGradient id="paint6_linear_26_19" x1="366.6" y1="100.519" x2="366.6" y2="265.519" gradientUnits="userSpaceOnUse">
<stop stop-color="#59B2D2"/>
<stop offset="1" stop-color="#FFC609"/>
</linearGradient>
<linearGradient id="paint7_linear_26_19" x1="322.6" y1="261.019" x2="322.6" y2="310.019" gradientUnits="userSpaceOnUse">
<stop stop-color="#59B2D2"/>
<stop offset="1" stop-color="#FFC609"/>
</linearGradient>
<linearGradient id="paint8_linear_26_19" x1="223.1" y1="339.019" x2="223.1" y2="399.019" gradientUnits="userSpaceOnUse">
<stop stop-color="#59B2D2"/>
<stop offset="1" stop-color="#FFC609"/>
</linearGradient>
<linearGradient id="paint9_linear_26_19" x1="181.6" y1="308.519" x2="181.6" y2="330.519" gradientUnits="userSpaceOnUse">
<stop stop-color="#59B2D2"/>
<stop offset="1" stop-color="#FFC609"/>
</linearGradient>
<linearGradient id="paint10_linear_26_19" x1="120.6" y1="295.019" x2="120.6" y2="341.019" gradientUnits="userSpaceOnUse">
<stop stop-color="#59B2D2"/>
<stop offset="1" stop-color="#FFC609"/>
</linearGradient>
<linearGradient id="paint11_linear_26_19" x1="66.1001" y1="234.019" x2="66.1001" y2="326.019" gradientUnits="userSpaceOnUse">
<stop stop-color="#59B2D2"/>
<stop offset="1" stop-color="#FFC609"/>
</linearGradient>
<linearGradient id="paint12_linear_26_19" x1="211.85" y1="92.6" x2="211.85" y2="294.6" gradientUnits="userSpaceOnUse">
<stop stop-color="#7FDDFF"/>
<stop offset="1" stop-color="#FFC609"/>
</linearGradient>
<linearGradient id="paint13_linear_26_19" x1="212.57" y1="12.6" x2="212.57" y2="75.0193" gradientUnits="userSpaceOnUse">
<stop stop-color="#7FDDFF"/>
<stop offset="1" stop-color="#FFC609"/>
</linearGradient>
<linearGradient id="paint14_linear_26_19" x1="100.852" y1="117.019" x2="100.852" y2="222.519" gradientUnits="userSpaceOnUse">
<stop stop-color="#7FDDFF"/>
<stop offset="1" stop-color="#FFC609"/>
</linearGradient>
<linearGradient id="paint15_linear_26_19" x1="323.852" y1="117.019" x2="323.852" y2="222.519" gradientUnits="userSpaceOnUse">
<stop stop-color="#7FDDFF"/>
<stop offset="1" stop-color="#FFC609"/>
</linearGradient>
<linearGradient id="paint16_linear_26_19" x1="347.6" y1="49.0189" x2="347.6" y2="97.0189" gradientUnits="userSpaceOnUse">
<stop stop-color="#7FDDFF"/>
<stop offset="1" stop-color="#FFC609"/>
</linearGradient>
<linearGradient id="paint17_linear_26_19" x1="212.712" y1="90.4457" x2="212.712" y2="329.547" gradientUnits="userSpaceOnUse">
<stop stop-color="#7FDDFF"/>
<stop offset="1" stop-color="#FFC609"/>
</linearGradient>
<linearGradient id="paint18_linear_26_19" x1="366.6" y1="100.519" x2="366.6" y2="265.519" gradientUnits="userSpaceOnUse">
<stop stop-color="#7FDDFF"/>
<stop offset="1" stop-color="#FFC609"/>
</linearGradient>
<linearGradient id="paint19_linear_26_19" x1="322.6" y1="261.019" x2="322.6" y2="310.019" gradientUnits="userSpaceOnUse">
<stop stop-color="#7FDDFF"/>
<stop offset="1" stop-color="#FFC609"/>
</linearGradient>
<linearGradient id="paint20_linear_26_19" x1="223.1" y1="339.019" x2="223.1" y2="399.019" gradientUnits="userSpaceOnUse">
<stop stop-color="#7FDDFF"/>
<stop offset="1" stop-color="#FFC609"/>
</linearGradient>
<linearGradient id="paint21_linear_26_19" x1="181.6" y1="308.519" x2="181.6" y2="330.519" gradientUnits="userSpaceOnUse">
<stop stop-color="#7FDDFF"/>
<stop offset="1" stop-color="#FFC609"/>
</linearGradient>
<linearGradient id="paint22_linear_26_19" x1="120.6" y1="295.019" x2="120.6" y2="341.019" gradientUnits="userSpaceOnUse">
<stop stop-color="#7FDDFF"/>
<stop offset="1" stop-color="#FFC609"/>
</linearGradient>
<linearGradient id="paint23_linear_26_19" x1="66.1001" y1="234.019" x2="66.1001" y2="326.019" gradientUnits="userSpaceOnUse">
<stop stop-color="#7FDDFF"/>
<stop offset="1" stop-color="#FFC609"/>
</linearGradient>
</defs>
</svg>
