<svg width="115" height="33" viewBox="0 0 115 33" fill="none" xmlns="http://www.w3.org/2000/svg">
<path d="M5.80078 3.60742V8.89844H9.5625V10.1289H5.80078V20.5703C5.80078 21.6133 5.94727 22.3164 6.24023 22.6797C6.54492 23.043 6.93164 23.2246 7.40039 23.2246C7.78711 23.2246 8.16211 23.1074 8.52539 22.873C8.88867 22.627 9.16992 22.2695 9.36914 21.8008H10.0547C9.64453 22.9492 9.06445 23.8164 8.31445 24.4023C7.56445 24.9766 6.79102 25.2637 5.99414 25.2637C5.45508 25.2637 4.92773 25.1172 4.41211 24.8242C3.89648 24.5195 3.51562 24.0918 3.26953 23.541C3.02344 22.9785 2.90039 22.1172 2.90039 20.957V10.1289H0.351562V9.54883C0.996094 9.29102 1.65234 8.85742 2.32031 8.24805C3 7.62695 3.60352 6.89453 4.13086 6.05078C4.40039 5.60547 4.77539 4.79102 5.25586 3.60742H5.80078ZM13.8516 14.9629C13.8398 17.3535 14.4199 19.2285 15.5918 20.5879C16.7637 21.9473 18.1406 22.627 19.7227 22.627C20.7773 22.627 21.6914 22.3398 22.4648 21.7656C23.25 21.1797 23.9062 20.1836 24.4336 18.7773L24.9785 19.1289C24.7324 20.7344 24.0176 22.1992 22.834 23.5234C21.6504 24.8359 20.168 25.4922 18.3867 25.4922C16.4531 25.4922 14.7949 24.7422 13.4121 23.2422C12.041 21.7305 11.3555 19.7031 11.3555 17.1602C11.3555 14.4062 12.0586 12.2617 13.4648 10.7266C14.8828 9.17969 16.6582 8.40625 18.791 8.40625C20.5957 8.40625 22.0781 9.00391 23.2383 10.1992C24.3984 11.3828 24.9785 12.9707 24.9785 14.9629H13.8516ZM13.8516 13.9434H21.3047C21.2461 12.9121 21.123 12.1855 20.9355 11.7637C20.6426 11.1074 20.2031 10.5918 19.6172 10.2168C19.043 9.8418 18.4395 9.6543 17.8066 9.6543C16.834 9.6543 15.9609 10.0352 15.1875 10.7969C14.4258 11.5469 13.9805 12.5957 13.8516 13.9434ZM31.4473 19.1289C30.4629 18.6484 29.707 17.9805 29.1797 17.125C28.6523 16.2578 28.3887 15.3027 28.3887 14.2598C28.3887 12.666 28.9863 11.2949 30.1816 10.1465C31.3887 8.99805 32.9297 8.42383 34.8047 8.42383C36.3398 8.42383 37.6699 8.79883 38.7949 9.54883H42.2051C42.709 9.54883 43.002 9.56641 43.084 9.60156C43.166 9.625 43.2246 9.67188 43.2598 9.74219C43.3301 9.84766 43.3652 10.0352 43.3652 10.3047C43.3652 10.6094 43.3359 10.8203 43.2773 10.9375C43.2422 10.9961 43.1777 11.043 43.084 11.0781C43.002 11.1133 42.709 11.1309 42.2051 11.1309H40.1133C40.7695 11.9746 41.0977 13.0527 41.0977 14.3652C41.0977 15.8652 40.5234 17.1484 39.375 18.2148C38.2266 19.2812 36.6855 19.8145 34.752 19.8145C33.9551 19.8145 33.1406 19.6973 32.3086 19.4629C31.793 19.9082 31.4414 20.3008 31.2539 20.6406C31.0781 20.9688 30.9902 21.25 30.9902 21.4844C30.9902 21.6836 31.084 21.877 31.2715 22.0645C31.4707 22.252 31.8516 22.3867 32.4141 22.4688C32.7422 22.5156 33.5625 22.5566 34.875 22.5918C37.2891 22.6504 38.8535 22.7324 39.5684 22.8379C40.6582 22.9902 41.5254 23.3945 42.1699 24.0508C42.8262 24.707 43.1543 25.5156 43.1543 26.4766C43.1543 27.8008 42.5332 29.043 41.291 30.2031C39.4629 31.9141 37.0781 32.7695 34.1367 32.7695C31.875 32.7695 29.9648 32.2598 28.4062 31.2402C27.5273 30.6543 27.0879 30.0449 27.0879 29.4121C27.0879 29.1309 27.1523 28.8496 27.2812 28.5684C27.4805 28.1348 27.8906 27.5312 28.5117 26.7578C28.5938 26.6523 29.1914 26.0195 30.3047 24.8594C29.6953 24.4961 29.2617 24.1738 29.0039 23.8926C28.7578 23.5996 28.6348 23.2715 28.6348 22.9082C28.6348 22.498 28.7988 22.0176 29.127 21.4668C29.4668 20.916 30.2402 20.1367 31.4473 19.1289ZM34.5059 9.26758C33.6387 9.26758 32.9121 9.61328 32.3262 10.3047C31.7402 10.9961 31.4473 12.0566 31.4473 13.4863C31.4473 15.3379 31.8457 16.7734 32.6426 17.793C33.252 18.5664 34.0254 18.9531 34.9629 18.9531C35.8535 18.9531 36.5859 18.6191 37.1602 17.9512C37.7344 17.2832 38.0215 16.2344 38.0215 14.8047C38.0215 12.9414 37.6172 11.4824 36.8086 10.4277C36.2109 9.6543 35.4434 9.26758 34.5059 9.26758ZM31.2715 25C30.7207 25.5977 30.3047 26.1543 30.0234 26.6699C29.7422 27.1855 29.6016 27.6602 29.6016 28.0938C29.6016 28.6562 29.9414 29.1484 30.6211 29.5703C31.793 30.2969 33.4863 30.6602 35.7012 30.6602C37.8105 30.6602 39.3633 30.2852 40.3594 29.5352C41.3672 28.7969 41.8711 28.0059 41.8711 27.1621C41.8711 26.5527 41.5723 26.1191 40.9746 25.8613C40.3652 25.6035 39.1582 25.4512 37.3535 25.4043C34.7168 25.334 32.6895 25.1992 31.2715 25ZM47.8477 14.9629C47.8359 17.3535 48.416 19.2285 49.5879 20.5879C50.7598 21.9473 52.1367 22.627 53.7188 22.627C54.7734 22.627 55.6875 22.3398 56.4609 21.7656C57.2461 21.1797 57.9023 20.1836 58.4297 18.7773L58.9746 19.1289C58.7285 20.7344 58.0137 22.1992 56.8301 23.5234C55.6465 24.8359 54.1641 25.4922 52.3828 25.4922C50.4492 25.4922 48.791 24.7422 47.4082 23.2422C46.0371 21.7305 45.3516 19.7031 45.3516 17.1602C45.3516 14.4062 46.0547 12.2617 47.4609 10.7266C48.8789 9.17969 50.6543 8.40625 52.7871 8.40625C54.5918 8.40625 56.0742 9.00391 57.2344 10.1992C58.3945 11.3828 58.9746 12.9707 58.9746 14.9629H47.8477ZM47.8477 13.9434H55.3008C55.2422 12.9121 55.1191 12.1855 54.9316 11.7637C54.6387 11.1074 54.1992 10.5918 53.6133 10.2168C53.0391 9.8418 52.4355 9.6543 51.8027 9.6543C50.8301 9.6543 49.957 10.0352 49.1836 10.7969C48.4219 11.5469 47.9766 12.5957 47.8477 13.9434ZM65.8125 3.60742V8.89844H69.5742V10.1289H65.8125V20.5703C65.8125 21.6133 65.959 22.3164 66.252 22.6797C66.5566 23.043 66.9434 23.2246 67.4121 23.2246C67.7988 23.2246 68.1738 23.1074 68.5371 22.873C68.9004 22.627 69.1816 22.2695 69.3809 21.8008H70.0664C69.6562 22.9492 69.0762 23.8164 68.3262 24.4023C67.5762 24.9766 66.8027 25.2637 66.0059 25.2637C65.4668 25.2637 64.9395 25.1172 64.4238 24.8242C63.9082 24.5195 63.5273 24.0918 63.2812 23.541C63.0352 22.9785 62.9121 22.1172 62.9121 20.957V10.1289H60.3633V9.54883C61.0078 9.29102 61.6641 8.85742 62.332 8.24805C63.0117 7.62695 63.6152 6.89453 64.1426 6.05078C64.4121 5.60547 64.7871 4.79102 65.2676 3.60742H65.8125ZM73.8633 14.9629C73.8516 17.3535 74.4316 19.2285 75.6035 20.5879C76.7754 21.9473 78.1523 22.627 79.7344 22.627C80.7891 22.627 81.7031 22.3398 82.4766 21.7656C83.2617 21.1797 83.918 20.1836 84.4453 18.7773L84.9902 19.1289C84.7441 20.7344 84.0293 22.1992 82.8457 23.5234C81.6621 24.8359 80.1797 25.4922 78.3984 25.4922C76.4648 25.4922 74.8066 24.7422 73.4238 23.2422C72.0527 21.7305 71.3672 19.7031 71.3672 17.1602C71.3672 14.4062 72.0703 12.2617 73.4766 10.7266C74.8945 9.17969 76.6699 8.40625 78.8027 8.40625C80.6074 8.40625 82.0898 9.00391 83.25 10.1992C84.4102 11.3828 84.9902 12.9707 84.9902 14.9629H73.8633ZM73.8633 13.9434H81.3164C81.2578 12.9121 81.1348 12.1855 80.9473 11.7637C80.6543 11.1074 80.2148 10.5918 79.6289 10.2168C79.0547 9.8418 78.4512 9.6543 77.8184 9.6543C76.8457 9.6543 75.9727 10.0352 75.1992 10.7969C74.4375 11.5469 73.9922 12.5957 73.8633 13.9434ZM100.828 18.8828C100.395 21.0039 99.5449 22.6387 98.2793 23.7871C97.0137 24.9238 95.6133 25.4922 94.0781 25.4922C92.25 25.4922 90.6562 24.7246 89.2969 23.1895C87.9375 21.6543 87.2578 19.5801 87.2578 16.9668C87.2578 14.4355 88.0078 12.3789 89.5078 10.7969C91.0195 9.21484 92.8301 8.42383 94.9395 8.42383C96.5215 8.42383 97.8223 8.8457 98.8418 9.68945C99.8613 10.5215 100.371 11.3887 100.371 12.291C100.371 12.7363 100.225 13.0996 99.9316 13.3809C99.6504 13.6504 99.252 13.7852 98.7363 13.7852C98.0449 13.7852 97.5234 13.5625 97.1719 13.1172C96.9727 12.8711 96.8379 12.4023 96.7676 11.7109C96.709 11.0195 96.4746 10.4922 96.0645 10.1289C95.6543 9.77734 95.0859 9.60156 94.3594 9.60156C93.1875 9.60156 92.2441 10.0352 91.5293 10.9023C90.5801 12.0508 90.1055 13.5684 90.1055 15.4551C90.1055 17.377 90.5742 19.0762 91.5117 20.5527C92.4609 22.0176 93.7383 22.75 95.3438 22.75C96.4922 22.75 97.5234 22.3574 98.4375 21.5723C99.082 21.0332 99.709 20.0547 100.318 18.6367L100.828 18.8828Z" fill="white"/>
<path d="M109.078 1.16406C110.01 1.16406 110.919 1.40365 111.805 1.88281C112.69 2.35677 113.38 3.03906 113.875 3.92969C114.375 4.8151 114.625 5.73958 114.625 6.70312C114.625 7.66146 114.38 8.58073 113.891 9.46094C113.401 10.3411 112.716 11.026 111.836 11.5156C110.956 12 110.036 12.2422 109.078 12.2422C108.12 12.2422 107.201 12 106.32 11.5156C105.445 11.026 104.763 10.3411 104.273 9.46094C103.784 8.58073 103.539 7.66146 103.539 6.70312C103.539 5.73958 103.786 4.8151 104.281 3.92969C104.781 3.03906 105.474 2.35677 106.359 1.88281C107.245 1.40365 108.151 1.16406 109.078 1.16406ZM109.078 1.64062C108.229 1.64062 107.401 1.85938 106.594 2.29688C105.786 2.73438 105.156 3.35938 104.703 4.17188C104.25 4.97917 104.023 5.82292 104.023 6.70312C104.023 7.57812 104.245 8.41667 104.688 9.21875C105.135 10.0208 105.76 10.6458 106.562 11.0938C107.365 11.5417 108.203 11.7656 109.078 11.7656C109.953 11.7656 110.792 11.5417 111.594 11.0938C112.401 10.6458 113.026 10.0208 113.469 9.21875C113.917 8.41667 114.141 7.57812 114.141 6.70312C114.141 5.82292 113.914 4.97917 113.461 4.17188C113.008 3.35938 112.378 2.73438 111.57 2.29688C110.763 1.85938 109.932 1.64062 109.078 1.64062ZM106.016 3.29688H109.031C109.786 3.29688 110.362 3.46875 110.758 3.8125C111.154 4.15104 111.352 4.5625 111.352 5.04688C111.352 5.44271 111.216 5.79167 110.945 6.09375C110.68 6.39062 110.237 6.61979 109.617 6.78125L111.25 9.10938C111.448 9.38542 111.625 9.57552 111.781 9.67969C111.88 9.74219 112.018 9.78125 112.195 9.79688V10.0547H110.758L108.461 6.89062H107.867V9.30469C107.898 9.47656 107.971 9.60156 108.086 9.67969C108.206 9.75781 108.44 9.79688 108.789 9.79688V10.0547H105.922V9.79688C106.172 9.79688 106.349 9.76823 106.453 9.71094C106.557 9.64844 106.633 9.5599 106.68 9.44531C106.716 9.36198 106.734 9.11979 106.734 8.71875V4.63281C106.734 4.2474 106.727 4.02083 106.711 3.95312C106.674 3.83333 106.607 3.74219 106.508 3.67969C106.414 3.61198 106.25 3.57812 106.016 3.57812V3.29688ZM107.867 6.55469C108.482 6.55469 108.93 6.49479 109.211 6.375C109.497 6.25521 109.716 6.08854 109.867 5.875C110.018 5.65625 110.094 5.40885 110.094 5.13281C110.094 4.71094 109.945 4.35677 109.648 4.07031C109.357 3.78385 108.982 3.64062 108.523 3.64062C108.326 3.64062 108.107 3.68229 107.867 3.76562V6.55469Z" fill="white"/>
</svg>
